# xmcd CD database file
#
# Track frame offsets:
#	150
#	19310
#	35316
#	53150
#	71961
#	91011
#	108185
#	122348
#	140678
#	156905
#	173243
#	193807
#	213042
#
# Disc length: 3095 seconds
#
# Revision: 0
# Processed by: cddbd v1.5.1PL2 Copyright (c) Steve Scherf et al.
# Submitted via: CDex 1.50
#
DISCID=af0c150d
DTITLE=Faith Hill - Breathe
DYEAR=1900
DGENRE=Country
TTITLE0=What's in it for me
TTITLE1=I Got My Baby
TTITLE2=Love is a Sweet Thing
TTITLE3=Breathe
TTITLE4=Let's Make Love (with Time McGraw)
TTITLE5=It Will Be Me
TTITLE6=The Way You Love Me
TTITLE7=If I'm not in Love
TTITLE8=Bringing out the Elvis'
TTITLE9=If My Heart Had Wings
TTITLE10=If I Should Fall Behind
TTITLE11=That's How Love Moves'
TTITLE12=There Will Come a Day
EXTD=
EXTT0=
EXTT1=
EXTT2=
EXTT3=
EXTT4=
EXTT5=
EXTT6=
EXTT7=
EXTT8=
EXTT9=
EXTT10=
EXTT11=
EXTT12=
PLAYORDER=
